<?xml version="1.0" standalone="no"?>
<!DOCTYPE svg PUBLIC "-//W3C//DTD SVG 20010904//EN"
 "http://www.w3.org/TR/2001/REC-SVG-20010904/DTD/svg10.dtd">
<svg version="1.0" xmlns="http://www.w3.org/2000/svg"
 width="1000.000000pt" height="1000.000000pt" viewBox="0 0 1000.000000 1000.000000"
 preserveAspectRatio="xMidYMid meet">
<metadata>
Created by potrace 1.14, written by Peter Selinger 2001-2017
</metadata>
<g transform="translate(0.000000,1000.000000) scale(0.100000,-0.100000)"
fill="#000000" stroke="none">
<path d="M2056 7445 c-33 -13 -83 -40 -111 -59 -410 -283 -935 -1336 -1470
-2951 -147 -444 -209 -652 -367 -1245 -50 -189 -96 -414 -104 -517 l-7 -82 33
-31 c27 -25 40 -30 85 -30 94 0 120 38 129 185 8 130 22 185 268 1030 190 652
403 1273 606 1765 425 1031 850 1718 1062 1720 38 0 86 -34 113 -82 47 -81 62
-181 61 -403 -1 -210 -6 -253 -74 -615 -16 -85 -36 -211 -45 -280 -9 -69 -40
-280 -70 -470 -63 -405 -176 -1161 -204 -1375 -82 -612 -85 -650 -51 -721 36
-73 126 -98 223 -60 103 39 235 225 457 646 316 599 496 822 609 759 88 -50
130 -328 116 -778 -13 -412 -12 -458 13 -513 27 -63 71 -91 132 -85 43 5 51
12 230 196 102 105 193 191 202 191 24 0 44 -33 74 -123 33 -100 73 -146 168
-192 98 -48 182 -59 396 -52 180 7 286 20 615 81 364 67 467 79 660 80 99 1
197 -3 218 -7 l37 -8 0 -395 0 -396 34 -34 34 -34 549 2 548 3 295 138 294
137 816 0 817 0 12 -27 c25 -54 73 -102 129 -130 115 -56 260 -29 342 63 51
58 70 109 70 189 0 161 -124 285 -284 285 -92 0 -190 -52 -234 -125 l-27 -44
-850 -3 -850 -3 -293 -137 -293 -138 -450 0 -449 0 0 340 0 340 73 1 c39 0
111 4 160 7 l87 7 30 -47 c31 -51 100 -101 160 -118 175 -49 359 84 360 261 0
111 -59 209 -156 259 -68 35 -188 35 -254 1 -57 -30 -97 -66 -121 -112 -21
-42 -29 -44 -221 -55 l-118 -7 0 222 0 221 864 0 864 0 334 -242 335 -243 -5
-41 c-10 -94 52 -206 141 -258 246 -141 523 120 396 373 -38 76 -97 123 -185
147 -69 18 -133 10 -203 -26 l-39 -19 -340 248 c-187 137 -349 254 -360 260
-15 8 -289 11 -911 11 l-891 0 0 75 0 75 1334 0 1333 0 23 -32 c50 -73 154
-128 241 -128 52 0 136 33 183 72 23 18 50 56 67 92 71 149 9 313 -142 381
-53 24 -71 27 -128 23 -113 -8 -221 -82 -251 -172 l-12 -36 -439 0 -439 0 0
255 0 255 550 0 c604 0 604 0 634 59 14 25 16 78 16 338 l0 308 36 20 c50 27
110 97 128 152 20 59 20 138 1 193 -68 191 -326 249 -470 105 -115 -115 -113
-299 4 -408 26 -24 57 -48 69 -51 22 -7 22 -10 22 -252 l0 -244 -550 0 c-604
0 -604 0 -634 -59 -14 -25 -16 -79 -16 -351 l0 -320 -60 0 -60 0 0 925 0 924
35 17 c45 21 108 84 131 132 25 52 30 158 10 220 -32 96 -121 168 -238 192
-131 26 -257 -41 -316 -168 -21 -46 -24 -65 -20 -126 3 -45 13 -86 26 -112 24
-47 103 -121 139 -130 l23 -6 0 -934 0 -934 -680 0 c-730 0 -723 0 -750 -49
-6 -13 -10 -183 -10 -478 l0 -458 -238 -1 c-259 -1 -295 -4 -737 -79 -483 -82
-677 -100 -779 -74 -71 18 -109 57 -150 156 -50 120 -76 157 -130 183 -119 57
-254 11 -409 -138 l-68 -66 7 260 c7 294 -4 463 -41 608 -42 168 -118 281
-227 342 -45 25 -64 29 -123 28 -219 -2 -404 -216 -787 -909 -106 -193 -217
-379 -223 -373 -14 14 238 1740 342 2338 19 113 48 279 64 370 42 245 55 431
41 582 -21 220 -66 340 -171 451 -118 125 -239 158 -375 102z m5611 -617 c43
-40 27 -109 -31 -128 -40 -13 -65 -4 -90 32 -53 75 54 159 121 96z m1518 -643
c27 -26 31 -51 14 -89 -22 -48 -101 -53 -135 -8 -36 46 5 122 66 122 19 0 40
-9 55 -25z m59 -1546 c55 -43 23 -131 -48 -131 -75 0 -107 81 -52 129 34 28
65 29 100 2z m-2338 -1012 c38 -33 37 -81 -1 -115 -66 -56 -156 21 -114 99 22
42 76 49 115 16z m2088 -18 c59 -47 15 -149 -59 -135 -78 15 -89 122 -15 149
29 10 47 7 74 -14z m765 -609 c28 -14 44 -61 32 -93 -20 -51 -100 -67 -133
-26 -55 67 24 161 101 119z"/>
</g>
</svg>
