<svg id="Réteg_1" data-name="Réteg 1" xmlns="http://www.w3.org/2000/svg" xmlns:xlink="http://www.w3.org/1999/xlink" viewBox="0 0 97.46 79.36"><defs><style>.cls-1{fill:#2d377f;}.cls-2{fill:url(#Névtelen_színátmenet_31);}</style><linearGradient id="Névtelen_színátmenet_31" x1="22.8" y1="58.77" x2="120.26" y2="58.77" gradientUnits="userSpaceOnUse"><stop offset="0" stop-color="#ec642d"/><stop offset="0.14" stop-color="#eb6131"/><stop offset="0.2" stop-color="#ea5936"/><stop offset="0.28" stop-color="#e64344"/><stop offset="0.38" stop-color="#df1f5a"/><stop offset="0.46" stop-color="#da006d"/><stop offset="0.59" stop-color="#a21074"/><stop offset="0.8" stop-color="#462b7f"/><stop offset="0.88" stop-color="#302c80"/><stop offset="1" stop-color="#2e2c80"/></linearGradient></defs><path class="cls-1" d="M37.08,99.76a1.19,1.19,0,0,0,1.11,1.33,1,1,0,0,0,1.06-.87h.41a1.36,1.36,0,0,1-1.47,1.21c-1.07,0-1.53-.82-1.53-1.78a1.59,1.59,0,0,1,1.53-1.79c1.08,0,1.52,1,1.48,1.9Zm2.18-.35a1.13,1.13,0,0,0-1.07-1.2,1.19,1.19,0,0,0-1.11,1.2Z" transform="translate(-22.8 -29.71)"/><path class="cls-1" d="M41.34,99.8c0,1,.67,1.25,1.53,1.25.49,0,1.23-.27,1.23-1,0-.53-.52-.74-1-.84l-1-.26c-.55-.13-1.05-.39-1.05-1.12,0-.46.29-1.32,1.61-1.32.93,0,1.72.49,1.72,1.46h-.44a1.16,1.16,0,0,0-1.28-1.08c-.61,0-1.17.24-1.17.93,0,.44.32.63.71.71l1.14.29c.66.17,1.21.47,1.21,1.23,0,.32-.13,1.33-1.79,1.33-1.11,0-1.92-.49-1.87-1.63Z" transform="translate(-22.8 -29.71)"/><path class="cls-1" d="M46,96.66h.41v.66H46ZM46,98h.41v3.37H46Z" transform="translate(-22.8 -29.71)"/><path class="cls-1" d="M50.86,101.06c0,1-.41,1.62-1.5,1.62-.67,0-1.35-.3-1.4-1h.41a.9.9,0,0,0,1,.68c.77,0,1.09-.45,1.09-1.28v-.46h0a1.14,1.14,0,0,1-1.07.69c-1.08,0-1.52-.76-1.52-1.73a1.54,1.54,0,0,1,1.52-1.7,1.17,1.17,0,0,1,1.07.68h0V98h.41Zm-.41-1.45c0-.67-.3-1.4-1.09-1.4s-1.11.7-1.11,1.4.34,1.34,1.11,1.34A1.2,1.2,0,0,0,50.45,99.61Z" transform="translate(-22.8 -29.71)"/><path class="cls-1" d="M52.45,98h.41v.58h0A1.14,1.14,0,0,1,54,97.86c.95,0,1.23.5,1.23,1.3v2.17h-.41v-2.1c0-.58-.19-1-.86-1a1.06,1.06,0,0,0-1.06,1.15v2h-.41Z" transform="translate(-22.8 -29.71)"/><path class="cls-1" d="M56.75,99c0-.79.59-1.13,1.36-1.13.6,0,1.25.17,1.25,1.08v1.8a.22.22,0,0,0,.24.25.31.31,0,0,0,.13,0v.35a1.18,1.18,0,0,1-.27,0c-.42,0-.48-.24-.48-.58h0a1.31,1.31,0,0,1-1.24.68c-.62,0-1.13-.31-1.13-1,0-.94.93-1,1.82-1.08.34,0,.53-.09.53-.46,0-.56-.4-.69-.89-.69s-.88.23-.9.78Zm2.2.5h0c0,.1-.23.13-.34.15-.71.12-1.58.12-1.58.78a.71.71,0,0,0,.76.67A1.09,1.09,0,0,0,59,100Z" transform="translate(-22.8 -29.71)"/><path class="cls-1" d="M61.6,98h.68v.34H61.6v2.28c0,.27,0,.43.33.45l.35,0v.35h-.36c-.55,0-.74-.18-.74-.76V98.3h-.59V98h.59v-1h.42Z" transform="translate(-22.8 -29.71)"/><path class="cls-1" d="M66.36,101.33H66v-.6h0a1.25,1.25,0,0,1-1.16.7c-.86,0-1.19-.49-1.19-1.28V98H64v2.2c0,.61.25.93.91.93s1-.67,1-1.36V98h.41Z" transform="translate(-22.8 -29.71)"/><path class="cls-1" d="M68,98h.38v.79h0a1.23,1.23,0,0,1,1.27-.84v.41a1.17,1.17,0,0,0-1.25,1.21v1.8H68Z" transform="translate(-22.8 -29.71)"/><path class="cls-1" d="M71,99.76a1.2,1.2,0,0,0,1.11,1.33,1,1,0,0,0,1.06-.87h.42a1.38,1.38,0,0,1-1.48,1.21c-1.07,0-1.52-.82-1.52-1.78s.45-1.79,1.52-1.79,1.52,1,1.49,1.9Zm2.19-.35a1.14,1.14,0,0,0-1.08-1.2A1.19,1.19,0,0,0,71,99.41Z" transform="translate(-22.8 -29.71)"/><path class="cls-1" d="M76.86,96.66h.48l1.52,4.18h0l1.51-4.18h.47l-1.74,4.67h-.52Z" transform="translate(-22.8 -29.71)"/><path class="cls-1" d="M81.69,99c0-.79.59-1.13,1.37-1.13.59,0,1.24.17,1.24,1.08v1.8a.22.22,0,0,0,.24.25.35.35,0,0,0,.14,0v.35a1.18,1.18,0,0,1-.27,0c-.42,0-.49-.24-.49-.58h0a1.3,1.3,0,0,1-1.23.68c-.63,0-1.13-.31-1.13-1,0-.94.92-1,1.81-1.08.34,0,.53-.09.53-.46,0-.56-.39-.69-.88-.69s-.89.23-.91.78Zm2.2.5h0c0,.1-.24.13-.35.15-.7.12-1.57.12-1.57.78a.7.7,0,0,0,.75.67A1.08,1.08,0,0,0,83.89,100Z" transform="translate(-22.8 -29.71)"/><path class="cls-1" d="M86,96.66h.41v4.67H86Z" transform="translate(-22.8 -29.71)"/><path class="cls-1" d="M88,96.66h.41v.66H88ZM88,98h.41v3.37H88Z" transform="translate(-22.8 -29.71)"/><path class="cls-1" d="M92.94,101.33h-.38v-.64h0a1.31,1.31,0,0,1-1.2.74c-1,0-1.52-.82-1.52-1.78s.49-1.79,1.52-1.79a1.19,1.19,0,0,1,1.17.74h0V96.66h.42Zm-1.6-.24c.87,0,1.18-.74,1.18-1.44s-.31-1.44-1.18-1.44-1.11.73-1.11,1.44S90.55,101.09,91.34,101.09Z" transform="translate(-22.8 -29.71)"/><path class="cls-1" d="M94.5,99c0-.79.59-1.13,1.37-1.13.59,0,1.24.17,1.24,1.08v1.8a.22.22,0,0,0,.24.25.35.35,0,0,0,.14,0v.35a1.18,1.18,0,0,1-.27,0c-.42,0-.49-.24-.49-.58h0a1.3,1.3,0,0,1-1.23.68c-.63,0-1.13-.31-1.13-1,0-.94.92-1,1.81-1.08.34,0,.53-.09.53-.46,0-.56-.39-.69-.88-.69s-.89.23-.91.78Zm2.2.5h0c-.06.1-.24.13-.35.15-.7.12-1.57.12-1.57.78a.7.7,0,0,0,.75.67A1.08,1.08,0,0,0,96.7,100Z" transform="translate(-22.8 -29.71)"/><path class="cls-1" d="M99.35,98H100v.34h-.69v2.28c0,.27,0,.43.33.45l.36,0v.35h-.37c-.55,0-.74-.18-.73-.76V98.3h-.59V98h.59v-1h.41Z" transform="translate(-22.8 -29.71)"/><path class="cls-1" d="M104.3,99.65a1.61,1.61,0,1,1-1.59-1.79A1.62,1.62,0,0,1,104.3,99.65Zm-2.78,0a1.21,1.21,0,1,0,1.19-1.44A1.29,1.29,0,0,0,101.52,99.65Z" transform="translate(-22.8 -29.71)"/><path class="cls-1" d="M105.73,98h.38v.79h0a1.24,1.24,0,0,1,1.28-.84v.41a1.17,1.17,0,0,0-1.26,1.21v1.8h-.41Z" transform="translate(-22.8 -29.71)"/><path class="cls-1" d="M49.93,106h-.67v3h-.42v-3h-.57v-.35h.57v-.31c0-.58.16-1,.82-1a2.07,2.07,0,0,1,.35,0v.35a1.6,1.6,0,0,0-.3,0c-.45,0-.45.29-.45.65v.3h.67Z" transform="translate(-22.8 -29.71)"/><path class="cls-1" d="M54.08,107.29a1.61,1.61,0,1,1-1.6-1.79A1.62,1.62,0,0,1,54.08,107.29Zm-2.79,0a1.21,1.21,0,1,0,1.19-1.44A1.29,1.29,0,0,0,51.29,107.29Z" transform="translate(-22.8 -29.71)"/><path class="cls-1" d="M55.5,105.6h.38v.79h0a1.23,1.23,0,0,1,1.27-.84V106a1.16,1.16,0,0,0-1.26,1.21V109H55.5Z" transform="translate(-22.8 -29.71)"/><path class="cls-1" d="M62.14,104.3h.5L64.47,109H64l-.57-1.46H61.3L60.74,109h-.48Zm-.7,2.84h1.84l-.91-2.39Z" transform="translate(-22.8 -29.71)"/><path class="cls-1" d="M68,106.66a.9.9,0,0,0-.95-.81,1.47,1.47,0,0,0,0,2.88,1,1,0,0,0,1-1h.41a1.36,1.36,0,0,1-1.39,1.3,1.8,1.8,0,0,1,0-3.57,1.25,1.25,0,0,1,1.36,1.16Z" transform="translate(-22.8 -29.71)"/><path class="cls-1" d="M69.77,106.63c0-.79.59-1.13,1.37-1.13.6,0,1.25.18,1.25,1.09v1.79a.22.22,0,0,0,.24.25l.13,0V109a1.18,1.18,0,0,1-.27,0c-.42,0-.48-.25-.48-.59h0a1.27,1.27,0,0,1-1.23.68c-.63,0-1.13-.3-1.13-1,0-1,.92-1,1.81-1.09.34,0,.53-.09.53-.46,0-.56-.39-.69-.88-.69s-.88.23-.9.78Zm2.2.5h0c0,.1-.23.13-.35.15-.7.13-1.57.13-1.57.78a.71.71,0,0,0,.76.67A1.08,1.08,0,0,0,72,107.67Z" transform="translate(-22.8 -29.71)"/><path class="cls-1" d="M77,109h-.38v-.65h0a1.33,1.33,0,0,1-1.21.74c-1,0-1.52-.82-1.52-1.78s.49-1.79,1.52-1.79a1.21,1.21,0,0,1,1.17.74h0V104.3H77Zm-1.6-.25c.87,0,1.19-.74,1.19-1.44s-.32-1.44-1.19-1.44-1.1.74-1.1,1.44S74.58,108.73,75.36,108.73Z" transform="translate(-22.8 -29.71)"/><path class="cls-1" d="M78.81,107.4a1.2,1.2,0,0,0,1.11,1.33,1,1,0,0,0,1.06-.87h.41a1.36,1.36,0,0,1-1.47,1.21c-1.07,0-1.52-.82-1.52-1.78s.45-1.79,1.52-1.79,1.52,1,1.49,1.9Zm2.18-.35a1.13,1.13,0,0,0-1.07-1.2,1.19,1.19,0,0,0-1.11,1.2Z" transform="translate(-22.8 -29.71)"/><path class="cls-1" d="M82.81,105.6h.38v.57h0a1.18,1.18,0,0,1,1.11-.67.94.94,0,0,1,1,.66,1.15,1.15,0,0,1,1.07-.66c.75,0,1.12.39,1.12,1.19V109h-.41V106.7c0-.55-.2-.85-.8-.85s-.91.59-.91,1.21V109h-.42v-2.29c0-.46-.17-.84-.7-.84-.71,0-1,.53-1,1.24V109h-.41Z" transform="translate(-22.8 -29.71)"/><path class="cls-1" d="M89.07,104.3h.42V105h-.42Zm0,1.3h.42V109h-.42Z" transform="translate(-22.8 -29.71)"/><path class="cls-1" d="M93.47,106.66a.91.91,0,0,0-1-.81,1.47,1.47,0,0,0,0,2.88,1,1,0,0,0,1-1h.41a1.37,1.37,0,0,1-1.4,1.3,1.8,1.8,0,0,1,0-3.57,1.26,1.26,0,0,1,1.37,1.16Z" transform="translate(-22.8 -29.71)"/><path class="cls-1" d="M97.35,106.59a.78.78,0,0,0-.88-.74c-.37,0-.8.14-.8.58s.41.5.7.57l.55.12c.47.08,1,.35,1,.94s-.73,1-1.35,1a1.22,1.22,0,0,1-1.39-1.19h.41a.9.9,0,0,0,1,.85c.39,0,.92-.17.92-.64s-.37-.53-.74-.62l-.53-.12c-.54-.13-.94-.33-.94-.9s.67-1,1.27-1a1.1,1.1,0,0,1,1.23,1.09Z" transform="translate(-22.8 -29.71)"/><path class="cls-2" d="M26.57,74.91h19v2.71H26.46a1,1,0,0,0-.74.33,1,1,0,0,0-.32.75,1,1,0,0,0,.38.8,1.11,1.11,0,0,0,.69.21H45.58v2.72H26.46a1,1,0,0,0-.74.29,1,1,0,0,0-.32.75,1,1,0,0,0,.32.74,1.05,1.05,0,0,0,.74.31H45.58v2.71h-19a3.65,3.65,0,0,1-1.47-.3,4.06,4.06,0,0,1-1.2-.8,3.92,3.92,0,0,1-.81-1.19,3.74,3.74,0,0,1-.29-1.47A3.43,3.43,0,0,1,23,82.19a3.79,3.79,0,0,1,.63-1.09A3.79,3.79,0,0,1,23,80a3.51,3.51,0,0,1-.24-1.31,3.92,3.92,0,0,1,.29-1.49A3.85,3.85,0,0,1,23.9,76a4.06,4.06,0,0,1,1.2-.8A3.65,3.65,0,0,1,26.57,74.91Zm24.19.33a3.8,3.8,0,0,0-1.17.8,4.08,4.08,0,0,0-.8,1.19,3.53,3.53,0,0,0-.27,1.13V79a3.59,3.59,0,0,0,.27,1.13,4.08,4.08,0,0,0,.8,1.19,4,4,0,0,0,1.17.8,3.52,3.52,0,0,0,1.45.3H67.7a1,1,0,0,1,.73.31,1,1,0,0,1,.3.76,1,1,0,0,1-.29.71,1,1,0,0,1-.74.31H48.52v2.71H67.59A3.81,3.81,0,0,0,69.06,87a3.71,3.71,0,0,0,1.18-.79A3.89,3.89,0,0,0,71,85a3.61,3.61,0,0,0,.26-1v-1a3.68,3.68,0,0,0-.26-1,3.82,3.82,0,0,0-.8-1.2A3.76,3.76,0,0,0,69.06,80a3.65,3.65,0,0,0-1.47-.3H52.16a1,1,0,0,1-.74-.31,1,1,0,0,1-.32-.73,1,1,0,0,1,.32-.75,1,1,0,0,1,.74-.3H71.3V74.94H52.21A3.52,3.52,0,0,0,50.76,75.24Zm36.16,9a3.38,3.38,0,0,1-.46.5.9.9,0,0,1-.6.27.87.87,0,0,1-.6-.27,4.52,4.52,0,0,1-.49-.5l-6.91-9.32H74.53L83,86.44a3.71,3.71,0,0,0,1.24,1,3.59,3.59,0,0,0,1.58.36,3.4,3.4,0,0,0,1.66-.41,4,4,0,0,0,1.27-1l8.35-11.42H93.81Zm-4.09-13.4H74.36a.84.84,0,0,1-.84-.83V63.61c-4.85-.74-9.57,1.65-14.43,1.23a3.71,3.71,0,0,1-2.54-1.06c-.4-.46-.6-2-1-2s-1.41,1.2-1.74,1.56a14,14,0,0,1-1.34,1.44,1,1,0,0,1-1.37,0c-.78-.81-.41-2.68-.38-3.67a27.52,27.52,0,0,0-.21-5.88c-.9-5.4-4.7,2.62-5.62,4.16a48.16,48.16,0,0,1-2.48,4.37c-.53.76-1.17,1.66-2.2,1.67-2,0-1.24-2.47-1.13-3.71.2-1.7.43-3.39.67-5.08.6-4.2,1.25-8.4,1.9-12.6.35-3.68,1.8-7.52.8-11.19-1.55-4.09-5.59,3.93-6.45,5.44-4.16,8-7,16.74-9.43,25.43-.56,2.06-1.52,4.74-1.5,6.7a1,1,0,0,1-1.93,0c.24-3,1.26-5.89,2-8.78,1.24-4.48,12.07-40.55,18.87-30,1.65,3.4.27,8-.28,11.6-1,6.36-2,12.7-2.76,19.08,2-2.89,3.21-6.21,5.45-8.94.88-1.11,2.08-2.34,3.64-1.93,3.44,1.3,2.49,7.4,2.58,10.37,1-1.09,2.45-2.53,4-1.74,1,.55.83,1.67,1.48,2.39.84.92,3,.47,4.19.33,3.72-.49,7.44-1.57,11.2-1.11v-7.5a.84.84,0,0,1,.84-.83H85.48V37.7A2.35,2.35,0,0,1,87,33.25a2.33,2.33,0,0,1,1.67,1.56,2.36,2.36,0,0,1-1.5,3V53.34h1.09l0-5.22a.84.84,0,0,1,.83-.84h9.13V43.13a2.36,2.36,0,1,1,1.67,0v5A.84.84,0,0,1,99,49H89.88v4.39h7.38a2.36,2.36,0,1,1,2.9,2.86A2.37,2.37,0,0,1,97.45,55H75.19v1.32H89.87a.9.9,0,0,1,.5.16l5.68,4.2a2.36,2.36,0,1,1,.73,4.13,2.34,2.34,0,0,1-1.57-1.64,2.14,2.14,0,0,1,0-1.07L89.6,58H75.19v3.76c.82,0,1.71-.07,2.71-.16A2.36,2.36,0,0,1,82.4,63a2.33,2.33,0,0,1-1.73,1.66,2.36,2.36,0,0,1-2.74-1.42c-1,.09-1.92.14-2.74.17v5.75h7.46l4.92-2.29.35-.08h13.8a2.36,2.36,0,1,1-.06,1.67H88.1l-4.92,2.29Zm20.36-3.13a.7.7,0,1,0,.7-.69A.69.69,0,0,0,103.19,67.73ZM79.43,62.4a.69.69,0,1,0,.69-.7A.69.69,0,0,0,79.43,62.4Zm17.36.17a.69.69,0,1,0,.69-.7A.69.69,0,0,0,96.79,62.57Zm2.06-8.66a.69.69,0,1,0,.69-.69A.69.69,0,0,0,98.85,53.91Zm-.54-13a.7.7,0,1,0,.7-.69A.69.69,0,0,0,98.31,40.93ZM85.7,35.54a.7.7,0,1,0,.69-.69A.69.69,0,0,0,85.7,35.54Zm19.14,39.88,0,0v0l-.64-.48h-5.1V87.27h2.68V77.6h1.54l12.61,9.67h4.35Z" transform="translate(-22.8 -29.71)"/></svg>